<svg id="Capa_1" enable-background="new 0 0 512 512" height="512" viewBox="0 0 512 512" width="512" xmlns="http://www.w3.org/2000/svg"><g><path d="m180.75 196.749h30v30h-30z"/><path d="m437.02 74.98c-48.353-48.351-112.64-74.98-181.02-74.98s-132.667 26.629-181.02 74.98c-48.351 48.353-74.98 112.64-74.98 181.02s26.629 132.667 74.98 181.02c48.353 48.351 112.64 74.98 181.02 74.98s132.667-26.629 181.02-74.98c48.351-48.353 74.98-112.64 74.98-181.02s-26.629-132.667-74.98-181.02zm-21.214 340.826c-42.686 42.686-99.439 66.194-159.806 66.194s-117.12-23.508-159.806-66.194-66.194-99.439-66.194-159.806 23.508-117.12 66.194-159.806 99.439-66.194 159.806-66.194 117.12 23.508 159.806 66.194 66.194 99.439 66.194 159.806-23.508 117.12-66.194 159.806z"/><path d="m210.75 112.136h-30c0 29.473-23.978 53.451-53.451 53.451v30c46.015 0 83.451-37.436 83.451-83.451z"/><path d="m301.25 196.749h30v30h-30z"/><path d="m384.701 195.587v-30c-29.473 0-53.451-23.978-53.451-53.451h-30c0 46.015 37.437 83.451 83.451 83.451z"/><path d="m256 271.125c-65.861 0-125.46 39.004-151.835 99.367l27.49 12.012c21.601-49.436 70.409-81.378 124.345-81.378 53.937 0 102.746 31.943 124.346 81.379l27.49-12.012c-26.375-60.364-85.975-99.368-151.836-99.368z"/></g></svg>